<?xml version="1.0" encoding="utf-8"?>
<!-- Generator: Adobe Illustrator 17.0.0, SVG Export Plug-In . SVG Version: 6.00 Build 0)  -->
<!DOCTYPE svg PUBLIC "-//W3C//DTD SVG 1.1//EN" "http://www.w3.org/Graphics/SVG/1.1/DTD/svg11.dtd">
<svg version="1.1" id="Layer_1" xmlns="http://www.w3.org/2000/svg" xmlns:xlink="http://www.w3.org/1999/xlink" x="0px" y="0px"
	 width="512px" height="512px" viewBox="0 0 512 512" enable-background="new 0 0 512 512" xml:space="preserve">
<g>
	<g>
		<g>
			<path fill="#db4830" d="M203.21,268.005c-3.194-0.67-6.389-1.433-9.589-2.299c0.735,7.886,2.946,15.349,6.355,22.111
				c2.771-1.424,5.468-2.92,8.093-4.488C205.716,278.577,204.047,273.428,203.21,268.005z"/>
			<path fill="#db4830" d="M303.148,236.434c2.355,4.753,4.024,9.902,4.861,15.324c3.194,0.67,6.389,1.433,9.589,2.299
				c-0.735-7.886-2.947-15.35-6.355-22.111C308.47,233.37,305.773,234.866,303.148,236.434z"/>
			<path fill="#db4830" d="M259.711,207.033c5.411,0.416,10.595,1.646,15.433,3.571c2.14-2.477,4.333-4.887,6.578-7.237
				c-6.746-3.13-14.141-5.085-21.924-5.605C259.675,200.867,259.648,203.956,259.711,207.033z"/>
			<path fill="#db4830" d="M211.564,230.399c3.134-4.667,6.996-8.801,11.411-12.26c-1.021-3.102-1.968-6.233-2.828-9.404
				c-6.574,4.572-12.227,10.376-16.625,17.077C206.161,227.419,208.84,228.947,211.564,230.399z"/>
			<path fill="#db4830" d="M299.655,289.365c-3.134,4.666-6.996,8.801-11.411,12.26c1.021,3.102,1.968,6.233,2.828,9.403
				c6.574-4.571,12.227-10.376,16.625-17.076C305.057,292.345,302.379,290.816,299.655,289.365z"/>
			<path fill="#db4830" d="M251.508,312.73c-5.412-0.416-10.595-1.646-15.433-3.571c-2.14,2.477-4.333,4.887-6.578,7.237
				c6.745,3.129,14.14,5.084,21.923,5.604C251.544,318.896,251.571,315.808,251.508,312.73z"/>
		</g>
		<path fill="#db4830" d="M255.609,120.945c-13.25,0-26.066,1.857-38.205,5.321c-4.096,45.58,2.108,76.354,11.984,101.245
			c-3.585,2.907-6.674,6.398-9.13,10.327c-11.428-5.141-22.964-11.825-34.798-21.102c-13.423-10.34-27.231-24.028-41.365-39.735
			c-10.793,14.498-18.82,31.175-23.314,49.249c36.884,26.126,67.151,37.124,93.804,40.872c0.782,4.462,2.264,8.682,4.345,12.534
			c-21.322,15.127-49.653,26.534-92.638,31.122c7.87,19.979,20.235,37.695,35.851,51.901c18.469-10.499,35.012-21.327,48.4-32.541
			c12.357-10.18,22.103-20.68,30.308-31.291c4.033,1.529,8.362,2.451,12.88,2.652c2.381,25.845-0.937,55.466-18.723,95.797
			c6.723,0.999,13.601,1.523,20.602,1.523c13.25,0,26.066-1.857,38.205-5.321c4.095-45.579-2.109-76.354-11.984-101.244
			c3.585-2.907,6.674-6.398,9.13-10.327c11.429,5.141,22.965,11.824,34.799,21.102c13.423,10.34,27.231,24.028,41.366,39.735
			c10.793-14.498,18.82-31.175,23.314-49.249c-36.884-26.126-67.151-37.123-93.804-40.872c-0.783-4.462-2.264-8.682-4.345-12.534
			c21.322-15.127,49.654-26.534,92.638-31.123c-7.87-19.979-20.235-37.694-35.851-51.901c-18.469,10.499-35.011,21.327-48.4,32.541
			c-12.357,10.18-22.103,20.68-30.308,31.29c-4.033-1.528-8.361-2.45-12.88-2.651c-2.381-25.845,0.937-55.466,18.723-95.797
			C269.488,121.469,262.61,120.945,255.609,120.945z"/>
	</g>
	<g>
		<polygon fill="#db4830" points="116.425,111.463 115.348,111.463 114.637,116.708 109.392,117.419 109.392,118.496
			114.637,119.207 115.348,124.452 116.425,124.452 117.136,119.207 122.381,118.496 122.381,117.419 117.136,116.708 		"/>
		<path fill="#db4830" d="M127.91,117.957c0-6.629-5.394-12.023-12.023-12.023c-6.631,0-12.024,5.394-12.024,12.023
			c0,6.63,5.393,12.023,12.024,12.023C122.516,129.981,127.91,124.588,127.91,117.957z M105.645,117.957
			c0-5.656,4.585-10.241,10.241-10.241c5.656,0,10.241,4.585,10.241,10.241c0,5.656-4.585,10.241-10.241,10.241
			C110.23,128.199,105.645,123.614,105.645,117.957z"/>
	</g>
	<g>
		<polygon fill="#db4830" points="395.871,111.463 394.794,111.463 394.083,116.708 388.838,117.419 388.838,118.496
			394.083,119.207 394.794,124.452 395.871,124.452 396.581,119.207 401.827,118.496 401.827,117.419 396.581,116.708 		"/>
		<polygon fill="#db4830" points="116.425,395.312 115.348,395.312 114.637,400.557 109.392,401.268 109.392,402.344
			114.637,403.055 115.348,408.301 116.425,408.301 117.136,403.055 122.381,402.344 122.381,401.268 117.136,400.557 		"/>
		<path fill="#db4830" d="M395.332,105.934c-6.63,0-12.023,5.394-12.023,12.023c0,6.63,5.393,12.023,12.023,12.023
			c6.629,0,12.023-5.393,12.023-12.023C407.355,111.328,401.962,105.934,395.332,105.934z M395.332,128.199
			c-5.657,0-10.241-4.585-10.241-10.241c0-5.656,4.585-10.241,10.241-10.241c5.656,0,10.241,4.585,10.241,10.241
			C405.574,123.614,400.989,128.199,395.332,128.199z"/>
		<path fill="#db4830" d="M402.069,90.027H109.149c-12.92,0-23.394,10.475-23.394,23.395v292.919
			c0,12.92,10.474,23.395,23.394,23.395h292.919c12.92,0,23.395-10.475,23.395-23.395V113.422
			C425.464,100.502,414.989,90.027,402.069,90.027z M115.887,105.223c7.021,0,12.733,5.713,12.733,12.734
			c0,7.021-5.712,12.734-12.733,12.734c-7.022,0-12.735-5.713-12.735-12.734C103.152,110.936,108.865,105.223,115.887,105.223z
			 M115.887,414.54c-7.022,0-12.735-5.713-12.735-12.734c0-7.021,5.713-12.734,12.735-12.734c7.021,0,12.733,5.713,12.733,12.734
			C128.62,408.828,122.908,414.54,115.887,414.54z M255.61,404.149c-79.677,0-144.268-64.591-144.268-144.267
			c0-79.677,64.591-144.268,144.268-144.268c79.676,0,144.266,64.591,144.266,144.268
			C399.876,339.559,335.286,404.149,255.61,404.149z M395.332,414.54c-7.022,0-12.734-5.713-12.734-12.734
			c0-7.021,5.713-12.734,12.734-12.734c7.021,0,12.734,5.713,12.734,12.734C408.066,408.828,402.353,414.54,395.332,414.54z
			 M395.332,130.692c-7.022,0-12.734-5.713-12.734-12.734c0-7.022,5.713-12.734,12.734-12.734c7.021,0,12.734,5.713,12.734,12.734
			C408.066,124.979,402.353,130.692,395.332,130.692z"/>
		<path fill="#db4830" d="M115.887,389.783c-6.631,0-12.024,5.393-12.024,12.023c0,6.629,5.393,12.023,12.024,12.023
			c6.629,0,12.023-5.394,12.023-12.023C127.91,395.176,122.516,389.783,115.887,389.783z M115.886,412.047
			c-5.656,0-10.241-4.585-10.241-10.241c0-5.656,4.585-10.241,10.241-10.241c5.656,0,10.241,4.585,10.241,10.241
			C126.127,407.462,121.542,412.047,115.886,412.047z"/>
	</g>
	<g>
		<path fill="#db4830" d="M451.21,411.284c-1.773-5.595-5.647-9.478-10.142-9.478c-7.289,0-13.209,7.163-13.333,16.055l0.569-0.065
			l0.001-0.001l0.864-0.098v-0.006l2.899-0.245c0.038-5.275,2.257-9.904,5.351-13.493c1.151-0.466,2.375-0.725,3.649-0.725
			c0.005,0,0.009,0.001,0.009,0.001c-3.876,3.245-5.849,8.339-5.875,14.292c1.034,0.024,9.432-0.054,13.939-0.098
			c0.644-0.006,1.205-0.011,1.657-0.016c0.008,0.247,0.025,0.489,0.025,0.739c0,0.491-0.018,0.977-0.049,1.456
			c-1.25,0.095-3.359,0.255-5.633,0.422c-0.02,0.002-0.04,0.003-0.061,0.004c-0.214,0.016-0.429,0.032-0.646,0.047
			c-4.075,0.298-8.426,0.599-9.138,0.583c0.473,5.221,2.339,9.518,5.794,12.403c-0.007,0-0.014,0.002-0.022,0.002
			c-1.275,0-2.506-0.269-3.668-0.74c-2.777-3.17-4.88-7.094-5.251-11.735l-3.04-0.584l-0.001-0.011l-1.322-0.244
			c0.689,8.231,6.38,14.735,13.282,14.735c4.461,0,8.31-3.823,10.102-9.348h2.034c-0.244-2.088-0.593-3.907-1.009-5.498
			c0.031-0.492,0.049-0.989,0.049-1.493c0-1.158-0.083-2.287-0.241-3.377c1.136,2.506,2.119,5.867,2.63,10.367h4.376
			c-0.899-7.59-3.187-11.693-5.088-13.851H451.21z"/>
		<path fill="#db4830" d="M469.986,416.727l-3.046-3.307c-1.269-1.378-2.888-2.136-4.563-2.136h-0.772
			c1.763,2.372,3.584,6.244,4.471,12.478c0.306-0.245,0.601-0.514,0.877-0.819l3.044-3.37
			C470.679,418.817,470.674,417.474,469.986,416.727z"/>
		<path fill="#db4830" d="M455.796,411.284c1.889,2.541,3.845,6.804,4.646,13.851h1.897c0.832,0,1.649-0.19,2.418-0.547
			c-0.932-7.256-3.139-11.204-4.988-13.304H455.796z"/>
	</g>
</g>
<g>
</g>
<g>
</g>
<g>
</g>
<g>
</g>
<g>
</g>
<g>
</g>
<g>
</g>
<g>
</g>
<g>
</g>
<g>
</g>
<g>
</g>
<g>
</g>
<g>
</g>
<g>
</g>
<g>
</g>
</svg>
