<?xml version="1.0" encoding="utf-8"?>
<!-- Generator: Adobe Illustrator 17.0.0, SVG Export Plug-In . SVG Version: 6.00 Build 0)  -->
<!DOCTYPE svg PUBLIC "-//W3C//DTD SVG 1.1//EN" "http://www.w3.org/Graphics/SVG/1.1/DTD/svg11.dtd">
<svg version="1.1" id="Layer_1" xmlns="http://www.w3.org/2000/svg" xmlns:xlink="http://www.w3.org/1999/xlink" x="0px" y="0px"
	 width="512px" height="512px" viewBox="0 0 512 512" enable-background="new 0 0 512 512" xml:space="preserve">
<g>
	<path fill="#db4830" d="M428.495,170.826H83.505c-10.934,0-19.88,8.947-19.88,19.88c0,10.935,8.947,19.881,19.88,19.881h344.989
		c10.934,0,19.88-8.946,19.88-19.881C448.375,179.772,439.428,170.826,428.495,170.826z"/>
	<path fill="#db4830" d="M133.792,137.788c0-10.934-8.946-19.881-19.88-19.881l0,0c-10.934,0-19.881,8.947-19.881,19.881v20.465
		h39.761V137.788z"/>
	<path fill="#db4830" d="M417.969,137.788c0-10.934-8.947-19.881-19.881-19.881c-10.934,0-19.88,8.947-19.88,19.881v20.465h39.761
		V137.788z"/>
	<path fill="#db4830" d="M351.311,130.187c0-13.507-11.051-24.559-24.559-24.559H185.248c-13.507,0-24.559,11.051-24.559,24.559
		v28.067h190.621V130.187z"/>
	<path fill="#db4830" d="M74.15,394.776c0,16.47,13.351,29.821,29.821,29.821h304.058c16.47,0,29.821-13.351,29.821-29.821V223.451
		H74.15V394.776z M302.549,310.326h25.815v-25.815c0-7.534,6.164-13.697,13.697-13.697s13.698,6.164,13.698,13.697v25.815h25.814
		c7.534,0,13.698,6.164,13.698,13.697c0,7.534-6.164,13.698-13.698,13.698H355.76v25.815c0,7.534-6.164,13.697-13.698,13.697
		s-13.697-6.164-13.697-13.697v-25.815h-25.815c-7.534,0-13.697-6.164-13.697-13.698
		C288.852,316.49,295.016,310.326,302.549,310.326z M130.426,310.326h79.025c7.534,0,13.697,6.164,13.697,13.697
		c0,7.534-6.164,13.698-13.697,13.698h-79.025c-7.534,0-13.698-6.164-13.698-13.698C116.728,316.49,122.892,310.326,130.426,310.326
		z"/>
</g>
<g>
</g>
<g>
</g>
<g>
</g>
<g>
</g>
<g>
</g>
<g>
</g>
<g>
</g>
<g>
</g>
<g>
</g>
<g>
</g>
<g>
</g>
<g>
</g>
<g>
</g>
<g>
</g>
<g>
</g>
</svg>
