<?xml version="1.0" encoding="utf-8"?>
<!-- Generator: Adobe Illustrator 17.0.0, SVG Export Plug-In . SVG Version: 6.00 Build 0)  -->
<!DOCTYPE svg PUBLIC "-//W3C//DTD SVG 1.1//EN" "http://www.w3.org/Graphics/SVG/1.1/DTD/svg11.dtd">
<svg version="1.1" id="Layer_1" xmlns="http://www.w3.org/2000/svg" xmlns:xlink="http://www.w3.org/1999/xlink" x="0px" y="0px"
	 width="512px" height="512px" viewBox="0 0 512 512" enable-background="new 0 0 512 512" xml:space="preserve">
<g>
	<path fill="#db4830" d="M258,151.831c-62.344,0-112.884,50.54-112.884,112.883c0,62.344,50.54,112.883,112.884,112.883
		c62.343,0,112.883-50.539,112.883-112.883C370.883,202.371,320.344,151.831,258,151.831z M277.755,184.443
		c1.932-5.132,7.66-7.71,12.765-5.776c5.132,1.934,7.71,7.66,5.776,12.792c-1.513,3.965-5.28,6.395-9.272,6.395
		c-1.164,0-2.353-0.198-3.52-0.646C278.399,195.276,275.797,189.548,277.755,184.443z M196.147,319.52
		c-1.733,1.189-3.692,1.76-5.65,1.76c-3.149,0-6.221-1.489-8.156-4.265c-3.123-4.51-2.009-10.683,2.503-13.806
		c4.513-3.125,10.683-1.985,13.808,2.527C201.775,310.224,200.635,316.395,196.147,319.52z M201.179,220.288
		c-1.958,2.503-4.883,3.794-7.834,3.794c-2.13,0-4.287-0.695-6.098-2.109c-4.312-3.372-5.058-9.593-1.686-13.907c0,0,0,0,0-0.024
		c3.373-4.314,9.594-5.057,13.908-1.685C203.782,209.729,204.552,215.974,201.179,220.288z M285.388,352.538
		c-0.99,0.298-1.983,0.448-2.948,0.448c-4.239,0-8.156-2.728-9.47-6.967c-1.637-5.231,1.29-10.783,6.519-12.419
		c5.231-1.637,10.785,1.288,12.421,6.519C293.544,345.35,290.62,350.901,285.388,352.538z M258,308.421
		c-24.138,0-43.707-19.568-43.707-43.706c0-24.138,19.569-43.706,43.707-43.706s43.706,19.568,43.706,43.706
		C301.706,288.853,282.138,308.421,258,308.421z M340.051,274.626c-5.478,0-9.916-4.437-9.916-9.916
		c0-5.478,4.438-9.916,9.916-9.916c5.478,0,9.916,4.438,9.916,9.916C349.966,270.189,345.529,274.626,340.051,274.626z"/>
	<path fill="#db4830" d="M251.184,68.311c-19.009,0-37.362,2.837-54.686,8.069c-0.154-0.002-0.305-0.012-0.458-0.012
		c-42.245,0-78.539,25.913-93.856,62.674l1.076,0.47C92.197,153.313,83,168.672,76.103,185.226l44.402,19.403
		c21.068-51.494,71.692-87.88,130.679-87.88c2.286,0,4.556,0.065,6.816,0.173V68.484C255.734,68.403,253.47,68.311,251.184,68.311z
		 M111.914,183.303c-0.794,1.907-2.653,3.072-4.612,3.072c-0.62,0-1.239-0.124-1.859-0.37c-2.528-1.041-3.743-3.917-2.702-6.471
		c1.017-2.527,3.917-3.743,6.471-2.702C111.74,177.873,112.955,180.773,111.914,183.303z M244.462,98.646c-0.073,0-0.147,0-0.223,0
		c-2.726-0.124-4.859-2.428-4.735-5.18c0.124-2.726,2.455-4.835,5.18-4.735c2.728,0.124,4.859,2.455,4.735,5.18
		C249.296,96.588,247.091,98.646,244.462,98.646z"/>
	<path fill="#db4830" d="M265.438,76.556v42.94c2.13,0.143,4.127,1.351,5.138,3.405c0.95,1.924,0.807,4.103-0.196,5.84
		c-0.595,1.032-1.468,1.9-2.625,2.465c-3.044,1.505-6.768,0.271-8.282-2.809c-0.634-1.288-0.757-2.682-0.492-3.985l-1.331-0.062
		c-2.145-0.102-4.297-0.165-6.466-0.165c-45.103,0-86.137,22.39-110.685,58.764c0.321-0.029,0.643-0.056,0.975-0.034
		c2.141,0.139,3.957,1.352,4.96,3.091c0.595,1.031,0.911,2.222,0.822,3.506c-0.218,3.388-3.149,5.997-6.574,5.768
		c-2.503-0.166-4.547-1.793-5.386-3.979c-2.954,5.152-5.612,10.531-7.909,16.144l-2.883,7.049l-41.93-18.325
		c-8.309,21.249-12.921,44.351-12.921,68.545c0,104.021,84.326,188.347,188.347,188.347c104.021,0,188.346-84.326,188.346-188.347
		C446.347,163.188,366.006,80.468,265.438,76.556z M84.872,262.683c-3.322,0.891-6.718-1.043-7.611-4.338
		c-0.891-3.324,1.04-6.721,4.364-7.611c0.521-0.15,1.09-0.223,1.61-0.223c2.728,0,5.231,1.808,5.975,4.561
		C90.128,258.394,88.169,261.79,84.872,262.683z M97.664,289.504c-2.975,1.687-6.769,0.644-8.453-2.329
		c-1.685-2.975-0.62-6.769,2.331-8.453c0.966-0.545,2.031-0.794,3.072-0.794c2.157,0,4.239,1.116,5.379,3.122
		C101.68,284.049,100.639,287.819,97.664,289.504z M116.132,312.831c-2.554,2.281-6.471,2.058-8.752-0.496
		c-2.28-2.552-2.057-6.469,0.472-8.749c1.189-1.067,2.675-1.588,4.14-1.588c1.709,0,3.394,0.695,4.633,2.082
		C118.909,306.633,118.684,310.55,116.132,312.831z M346.323,115.797c0.889-3.322,4.262-5.296,7.562-4.422
		c3.324,0.89,5.299,4.261,4.409,7.585c-0.13,0.526-0.352,1.055-0.612,1.506c-1.364,2.362-4.182,3.626-6.937,2.893
		C347.41,122.493,345.448,119.099,346.323,115.797z M322.943,107.308c3.419,0.029,6.172,2.848,6.155,6.246
		c-0.011,1.109-0.328,2.156-0.848,3.058c-1.078,1.868-3.086,3.113-5.394,3.097c-3.441-0.038-6.185-2.825-6.157-6.244
		C316.726,110.045,319.526,107.281,322.943,107.308z M292.069,110.465c3.35-0.699,6.631,1.452,7.341,4.783
		c0.33,1.563,0.037,3.111-0.695,4.379c-0.854,1.48-2.299,2.591-4.12,2.971c-3.353,0.7-6.633-1.453-7.332-4.803
		C286.566,114.443,288.718,111.162,292.069,110.465z M139.21,331.597c-1.908,2.849-5.752,3.619-8.577,1.736
		c-2.852-1.91-3.643-5.752-1.736-8.603c1.191-1.784,3.149-2.75,5.156-2.75c1.191,0,2.38,0.322,3.447,1.041
		C140.326,324.903,141.12,328.745,139.21,331.597z M169.677,413.632c-0.889,3.322-4.262,5.296-7.562,4.423
		c-3.324-0.89-5.3-4.262-4.409-7.586c0.13-0.526,0.352-1.055,0.612-1.505c1.364-2.363,4.181-3.626,6.937-2.894
		C168.59,406.936,170.552,410.33,169.677,413.632z M193.057,422.121c-3.419-0.028-6.172-2.848-6.155-6.245
		c0.011-1.109,0.328-2.156,0.848-3.058c1.078-1.868,3.086-3.113,5.394-3.097c3.441,0.038,6.185,2.825,6.156,6.244
		C199.274,419.385,196.473,422.148,193.057,422.121z M223.931,418.964c-3.35,0.7-6.631-1.452-7.341-4.783
		c-0.33-1.563-0.038-3.11,0.695-4.379c0.854-1.48,2.299-2.592,4.12-2.972c3.353-0.7,6.632,1.453,7.331,4.803
		C229.434,414.986,227.283,418.266,223.931,418.964z M253.742,409.326c-3.08,1.515-6.803,0.28-8.319-2.798
		c-0.95-1.924-0.807-4.103,0.197-5.84c0.595-1.031,1.469-1.9,2.625-2.465c3.044-1.505,6.768-0.272,8.282,2.808
		C258.041,404.108,256.786,407.822,253.742,409.326z M342.854,424.424c-2.434,2.434-6.341,2.459-8.774,0.025
		c-0.39-0.376-0.737-0.832-0.997-1.282c-1.364-2.363-1.05-5.435,0.962-7.455c2.418-2.455,6.338-2.457,8.76-0.049
		C345.237,418.094,345.26,422.003,342.854,424.424z M361.846,399.66c-1.735,2.947-5.552,3.921-8.487,2.208
		c-0.955-0.564-1.703-1.362-2.223-2.264c-1.079-1.868-1.153-4.229,0.014-6.22c1.754-2.961,5.539-3.944,8.485-2.21
		C362.585,392.908,363.578,396.715,361.846,399.66z M374.549,371.345c-1.069,3.25-4.573,5.016-7.813,3.965
		c-1.519-0.496-2.713-1.523-3.445-2.791c-0.854-1.48-1.095-3.286-0.513-5.053c1.07-3.254,4.575-5.018,7.826-3.948
		C373.856,364.589,375.622,368.093,374.549,371.345z M374.525,346.514c-2.141-0.14-3.956-1.353-4.96-3.091
		c-0.596-1.031-0.911-2.222-0.822-3.506c0.218-3.389,3.148-5.997,6.573-5.769c3.421,0.227,6.01,3.172,5.792,6.56
		C380.88,344.133,377.949,346.74,374.525,346.514z M258,388.609c-68.425,0-123.895-55.469-123.895-123.895
		c0-68.425,55.469-123.895,123.895-123.895c68.424,0,123.894,55.47,123.894,123.895C381.895,333.14,326.425,388.609,258,388.609z
		 M387.103,204.7c-1.191,1.784-3.149,2.75-5.156,2.75c-1.191,0-2.38-0.322-3.447-1.041c-2.825-1.883-3.619-5.725-1.709-8.577
		c1.908-2.849,5.752-3.619,8.577-1.736C388.219,198.006,389.011,201.848,387.103,204.7z M408.147,225.843
		c-1.189,1.067-2.675,1.588-4.139,1.588c-1.709,0-3.394-0.695-4.634-2.082c-2.283-2.554-2.057-6.471,0.494-8.752
		c2.554-2.28,6.471-2.057,8.752,0.496C410.899,219.646,410.677,223.563,408.147,225.843z M424.459,250.707
		c-0.966,0.545-2.031,0.794-3.072,0.794c-2.157,0-4.239-1.116-5.379-3.123c-1.688-2.999-0.647-6.769,2.329-8.453
		c2.975-1.688,6.769-0.644,8.453,2.329C428.474,245.229,427.409,249.023,424.459,250.707z M434.374,278.695
		c-0.52,0.15-1.09,0.223-1.61,0.223c-2.728,0-5.231-1.808-5.975-4.561c-0.917-3.321,1.041-6.718,4.338-7.611
		c3.322-0.89,6.718,1.043,7.612,4.338C439.63,274.407,437.698,277.804,434.374,278.695z"/>
</g>
<g>
</g>
<g>
</g>
<g>
</g>
<g>
</g>
<g>
</g>
<g>
</g>
<g>
</g>
<g>
</g>
<g>
</g>
<g>
</g>
<g>
</g>
<g>
</g>
<g>
</g>
<g>
</g>
<g>
</g>
</svg>
