<?xml version="1.0" encoding="utf-8"?>
<!-- Generator: Adobe Illustrator 17.0.0, SVG Export Plug-In . SVG Version: 6.00 Build 0)  -->
<!DOCTYPE svg PUBLIC "-//W3C//DTD SVG 1.1//EN" "http://www.w3.org/Graphics/SVG/1.1/DTD/svg11.dtd">
<svg version="1.1" id="Layer_1" xmlns="http://www.w3.org/2000/svg" xmlns:xlink="http://www.w3.org/1999/xlink" x="0px" y="0px"
	 width="512px" height="512px" viewBox="0 0 512 512" enable-background="new 0 0 512 512" xml:space="preserve">
<g>
	<g>
		<path fill="#db4830" d="M338.955,443.863c-60.84,0-110.337-49.496-110.337-110.337c0-60.84,49.497-110.337,110.337-110.337
			c60.838,0,110.335,49.497,110.335,110.337C449.291,394.367,399.794,443.863,338.955,443.863z M338.955,243.803
			c-49.475,0-89.723,40.249-89.723,89.723s40.249,89.723,89.723,89.723c49.473,0,89.722-40.249,89.722-89.723
			S388.428,243.803,338.955,243.803z"/>
	</g>
	<g>
		<path fill="#db4830" d="M338.955,252.403c-44.803,0-81.124,36.32-81.124,81.124s36.321,81.123,81.124,81.123
			c44.803,0,81.123-36.32,81.123-81.123S383.758,252.403,338.955,252.403z M353.333,298.066c1.401-2.474,4.556-3.319,7.03-1.896
			c2.472,1.401,3.318,4.555,1.897,7.03c-0.949,1.649-2.681,2.576-4.473,2.576c-0.866,0-1.754-0.207-2.557-0.68
			C352.755,303.693,351.909,300.541,353.333,298.066z M317.319,296.293c2.454-1.421,5.608-0.598,7.052,1.856
			c1.421,2.452,0.598,5.626-1.856,7.05h-0.02c-0.805,0.473-1.711,0.7-2.577,0.7c-1.774,0-3.505-0.908-4.453-2.557
			C314.022,300.891,314.867,297.736,317.319,296.293z M301.056,338.758c-2.845,0-5.153-2.309-5.153-5.133
			c0-2.867,2.289-5.174,5.134-5.174c2.864,0,5.173,2.287,5.173,5.153C306.209,336.427,303.9,338.758,301.056,338.758z
			 M324.514,368.956c-0.968,1.648-2.699,2.576-4.473,2.576c-0.866,0-1.751-0.227-2.577-0.68c-2.452-1.421-3.297-4.576-1.876-7.049
			c1.423-2.452,4.578-3.32,7.03-1.876C325.092,363.35,325.937,366.482,324.514,368.956z M360.505,370.79
			c-0.803,0.475-1.689,0.703-2.576,0.703c-1.772,0-3.505-0.928-4.453-2.577c-1.441-2.453-0.598-5.608,1.876-7.029
			c2.454-1.424,5.609-0.598,7.029,1.876C363.825,366.214,362.979,369.369,360.505,370.79z M338.955,359.077
			c-14.112,0-25.552-11.44-25.552-25.551c0-14.111,11.44-25.551,25.552-25.551c14.111,0,25.551,11.44,25.551,25.551
			C364.506,347.638,353.066,359.077,338.955,359.077z M382.007,333.46c0,0.02,0,0.041,0,0.062c0,2.845-2.309,5.153-5.153,5.153
			c-2.846,0-5.153-2.309-5.153-5.153c0-0.022,0-0.042,0-0.062c0-0.02,0-0.042,0-0.062c0-2.844,2.287-5.173,5.131-5.173
			c2.845-0.02,5.176,2.289,5.176,5.133C382.007,333.378,382.007,333.418,382.007,333.46z"/>
	</g>
	<g>
		<path fill="#db4830" d="M125.604,181.24c-33.671,0-61.064-27.393-61.064-61.064s27.393-61.064,61.064-61.064
			c33.67,0,61.063,27.393,61.063,61.064S159.274,181.24,125.604,181.24z M125.604,70.52c-27.381,0-49.655,22.275-49.655,49.656
			c0,27.38,22.274,49.655,49.655,49.655c27.379,0,49.654-22.275,49.654-49.655C175.259,92.795,152.984,70.52,125.604,70.52z"/>
	</g>
	<g>
		<path fill="#db4830" d="M125.604,75.28c-24.796,0-44.896,20.101-44.896,44.896c0,24.796,20.1,44.896,44.896,44.896
			s44.896-20.101,44.896-44.896C170.5,95.38,150.399,75.28,125.604,75.28z M133.561,100.551c0.775-1.369,2.521-1.837,3.89-1.049
			c1.368,0.775,1.836,2.521,1.049,3.89c-0.524,0.913-1.484,1.426-2.476,1.426c-0.479,0-0.97-0.115-1.415-0.377
			C133.241,103.665,132.773,101.92,133.561,100.551z M113.63,99.57c1.358-0.787,3.104-0.331,3.902,1.027
			c0.787,1.357,0.331,3.114-1.027,3.902h-0.011c-0.446,0.262-0.947,0.388-1.426,0.388c-0.982,0-1.939-0.502-2.464-1.415
			C111.806,102.114,112.274,100.369,113.63,99.57z M104.63,123.071c-1.575,0-2.852-1.277-2.852-2.84c0-1.587,1.267-2.863,2.84-2.863
			c1.586,0,2.863,1.265,2.863,2.852C107.481,121.781,106.204,123.071,104.63,123.071z M117.612,139.783
			c-0.536,0.913-1.494,1.426-2.476,1.426c-0.479,0-0.969-0.126-1.426-0.377c-1.357-0.787-1.825-2.532-1.039-3.901
			c0.788-1.357,2.534-1.837,3.89-1.039C117.932,136.681,118.4,138.414,117.612,139.783z M137.531,140.799
			c-0.445,0.263-0.935,0.389-1.426,0.389c-0.98,0-1.94-0.514-2.464-1.426c-0.797-1.358-0.331-3.104,1.038-3.89
			c1.358-0.788,3.104-0.331,3.89,1.039C139.368,138.266,138.9,140.012,137.531,140.799z M125.604,134.316
			c-7.81,0-14.141-6.331-14.141-14.141c0-7.81,6.331-14.14,14.141-14.14s14.141,6.331,14.141,14.14
			C139.745,127.986,133.413,134.316,125.604,134.316z M149.43,120.139c0,0.011,0,0.022,0,0.035c0,1.574-1.277,2.852-2.852,2.852
			c-1.576,0-2.852-1.277-2.852-2.852c0-0.013,0-0.023,0-0.035c0-0.011,0-0.023,0-0.034c0-1.574,1.266-2.863,2.84-2.863
			c1.574-0.011,2.864,1.267,2.864,2.841C149.43,120.093,149.43,120.115,149.43,120.139z"/>
	</g>
	<g>
		<path fill="#db4830" d="M104.13,150.138l-0.32,0.229c0.346,0.25,0.674,0.521,1.029,0.76L104.13,150.138z"/>
		<path fill="#db4830" d="M156.441,99.705l0.518,0.368c-0.125-0.194-0.232-0.4-0.359-0.591L156.441,99.705z"/>
		<path fill="#db4830" d="M220.262,328.713c0-8.062,0.803-15.938,2.295-23.57l-83.724-116.948c-3.022,0.38-6.094,0.599-9.217,0.599
			c-8.245,0-16.166-1.386-23.57-3.903L221.528,346.2C220.709,340.485,220.262,334.651,220.262,328.713z"/>
		<path fill="#db4830" d="M195.024,123.312c0,3.173-0.225,6.294-0.618,9.363l117.468,83.488c7.478-1.429,15.183-2.206,23.071-2.206
			c6.282,0,12.454,0.478,18.485,1.394L191.233,100.073C193.679,107.382,195.024,115.19,195.024,123.312z"/>
	</g>
</g>
<g>
</g>
<g>
</g>
<g>
</g>
<g>
</g>
<g>
</g>
<g>
</g>
<g>
</g>
<g>
</g>
<g>
</g>
<g>
</g>
<g>
</g>
<g>
</g>
<g>
</g>
<g>
</g>
<g>
</g>
</svg>
