<?xml version="1.0" encoding="utf-8"?>
<!-- Generator: Adobe Illustrator 17.0.0, SVG Export Plug-In . SVG Version: 6.00 Build 0)  -->
<!DOCTYPE svg PUBLIC "-//W3C//DTD SVG 1.1//EN" "http://www.w3.org/Graphics/SVG/1.1/DTD/svg11.dtd">
<svg version="1.1" id="Layer_1" xmlns="http://www.w3.org/2000/svg" xmlns:xlink="http://www.w3.org/1999/xlink" x="0px" y="0px"
	 width="512px" height="512px" viewBox="0 0 512 512" enable-background="new 0 0 512 512" xml:space="preserve">
<g>
	<path fill="#db4830" d="M483.152,379.184H338.289c-2.482,0-4.811,1.196-6.257,3.214c-4.117,5.745-10.752,9.153-17.82,9.153H203.445
		c-7.068,0-13.703-3.408-17.82-9.153c-1.445-2.018-3.775-3.214-6.257-3.214H34.506c-8.881,0-16.146,7.265-16.146,16.146v14.428
		c0,8.88,7.265,16.146,16.146,16.146h448.645c8.881,0,16.146-7.266,16.146-16.146V395.33
		C499.298,386.449,492.033,379.184,483.152,379.184z"/>
	<path fill="#db4830" d="M72.443,357.886h372.772c16.897,0,30.723-13.826,30.723-30.723V115.161
		c0-16.898-13.826-30.723-30.723-30.723H72.443c-16.897,0-30.723,13.825-30.723,30.723v212.002
		C41.72,344.06,55.545,357.886,72.443,357.886z M59.642,115.161c0-7.058,5.744-12.802,12.802-12.802h372.772
		c7.058,0,12.801,5.743,12.801,12.802v212.002c0,7.058-5.743,12.801-12.801,12.801H72.444c-7.058,0-12.802-5.743-12.802-12.801
		V115.161z"/>
	<path fill="#db4830" d="M173.46,241.01c-9.766,0-17.711,7.945-17.711,17.71c0,9.764,7.945,17.709,17.711,17.709
		c9.764,0,17.709-7.945,17.709-17.709C191.169,248.954,183.225,241.01,173.46,241.01z M173.46,273.868
		c-8.366,0-15.149-6.783-15.149-15.149c0-8.366,6.783-15.149,15.149-15.149c8.366,0,15.148,6.783,15.148,15.149
		C188.608,267.085,181.826,273.868,173.46,273.868z"/>
	<path fill="#db4830" d="M173.46,232.485c-14.488,0-26.233,11.745-26.233,26.234c0,14.488,11.745,26.233,26.233,26.233
		c14.489,0,26.234-11.745,26.234-26.233C199.693,244.23,187.948,232.485,173.46,232.485z M173.46,282.392
		c-13.054,0-23.674-10.619-23.674-23.673c0-13.054,10.62-23.674,23.674-23.674c13.052,0,23.672,10.62,23.672,23.674
		C197.133,271.773,186.513,282.392,173.46,282.392z"/>
	<path fill="#db4830" d="M340.845,232.485c-14.488,0-26.233,11.745-26.233,26.234c0,14.488,11.745,26.233,26.233,26.233
		s26.233-11.745,26.233-26.233C367.078,244.23,355.333,232.485,340.845,232.485z M340.845,273.868
		c-8.367,0-15.149-6.783-15.149-15.149c0-8.366,6.782-15.149,15.149-15.149c8.366,0,15.148,6.783,15.148,15.149
		C355.993,267.085,349.211,273.868,340.845,273.868z"/>
	<path fill="#db4830" d="M122.698,228.977c3.433,0,8.346-2.212,13.141-5.916c3.113-2.404,5.732-5.122,7.375-7.654
		c2.724-4.202,2.032-6.721,0.97-8.094c-0.61-0.79-1.8-1.699-3.904-1.789c-3.713,0.553-18.649,6.646-21.515,18.285
		c-0.617,2.504,1.272,5.114,3.851,5.167C122.643,228.976,122.67,228.977,122.698,228.977z M120.519,225.589
		c-1.622-2.099,1.907-7.543,7.884-12.158c5.975-4.615,12.134-6.654,13.755-4.554c1.622,2.099-1.908,7.543-7.884,12.158
		C128.298,225.65,122.139,227.689,120.519,225.589z"/>
	<path fill="#db4830" d="M132.186,258.719h5.064c0-19.998,16.212-36.21,36.21-36.21s36.21,16.212,36.21,36.21h45.32v61.84
		c0,2.122,1.719,3.841,3.84,3.841c2.122,0,3.841-1.719,3.841-3.841v-61.84h41.661c0-20.165,16.348-36.513,36.514-36.513
		c19.948,0,36.134,16.005,36.481,35.871l11.679-2.819c8.092-1.953,13.73-9.258,13.561-17.58c-0.113-5.583-0.304-12.173-0.621-18.588
		h-10.07c-4.309,0-8.244-2.896-9.126-7.115c-1.212-5.794,3.236-10.949,8.83-10.949h8.901c-0.655-4.866-1.496-8.278-2.587-8.889
		c-4.839-2.707-29.034-7.938-29.034-7.938c-23.689-12.585-68.319-27.979-106.189-26.737v-35.698c0-2.121-1.719-3.84-3.841-3.84
		c-2.121,0-3.84,1.719-3.84,3.84v36.185c-8.793,0.864-17.097,2.743-24.523,5.925c-15.451,6.622-42.359,21.575-58.736,29.04
		c-7.262,3.31-14.85,5.864-22.673,7.441c-2.613,0.527-5.012,1.097-7.241,1.696c-17.021,4.854-23.144,13.536-25.327,18.67
		c-0.812,1.912-1.187,3.971-1.201,6.048l-0.091,14.853C115.137,251.048,122.76,258.719,132.186,258.719z M331.212,175.092
		c7.223,2.114,14.152,4.465,20.585,6.917c8.308,3.164,8.653,14.878,0.518,18.465c-2.728,1.204-4.827,1.61-4.827,1.61
		s-6.293,0.069-16.276,0.162V175.092z M280.768,166.12c14.711,0.671,29.99,3.445,44.377,7.292v28.889
		c-12.155,0.108-27.988,0.234-44.377,0.324V166.12z M262.67,166.482c3.895-0.357,7.874-0.541,11.926-0.526v36.701
		c-3.986,0.02-7.975,0.036-11.926,0.049V166.482z M254.989,202.727c-26.884,0.059-50.401-0.068-55.296-0.643
		c-1.74-0.205-3.223-0.566-4.488-1.034c-3.295-1.224-3.46-5.848-0.325-7.438c14.713-7.465,31.588-16.441,42.623-21.171
		c5.413-2.32,11.292-3.946,17.486-4.991V202.727z M117.455,228.032c-0.049-4.413,1.396-8.078,3.592-11.113
		c1.599-1.93,3.61-3.831,5.791-5.515c1.319-1.019,2.644-1.907,3.946-2.684c5.742-3.185,11.192-4.472,11.309-4.498
		c0,0,4.783-0.815,7.471-1.357c7.736-1.559,15.551-4.123,23.228-7.621c7.578-3.455,17.561-8.585,27.214-13.547
		c11.405-5.863,23.198-11.925,31.469-15.47c6.784-2.907,14.699-4.752,23.515-5.643v4.329c-6.762,1.111-12.974,2.808-18.496,5.174
		c-8.44,3.617-20.322,9.725-31.811,15.631c-3.706,1.904-7.396,3.801-10.961,5.61c-2.364,1.199-3.794,3.693-3.643,6.353
		c0.15,2.644,1.774,4.853,4.235,5.768c1.517,0.563,3.227,0.958,5.082,1.176c3.851,0.454,18.294,0.674,44.152,0.674
		c3.703,0,7.548-0.006,11.441-0.015v50.873h-42.843c-1.322-20.189-18.168-36.209-38.686-36.209
		c-20.519,0-37.367,16.02-38.687,36.209h-2.588c-3.871,0-7.507-1.513-10.236-4.258c-2.729-2.747-4.217-6.391-4.194-10.262
		L117.455,228.032z"/>
</g>
<g>
</g>
<g>
</g>
<g>
</g>
<g>
</g>
<g>
</g>
<g>
</g>
<g>
</g>
<g>
</g>
<g>
</g>
<g>
</g>
<g>
</g>
<g>
</g>
<g>
</g>
<g>
</g>
<g>
</g>
</svg>
