<?xml version="1.0" encoding="utf-8"?>
<!-- Generator: Adobe Illustrator 17.0.0, SVG Export Plug-In . SVG Version: 6.00 Build 0)  -->
<!DOCTYPE svg PUBLIC "-//W3C//DTD SVG 1.1//EN" "http://www.w3.org/Graphics/SVG/1.1/DTD/svg11.dtd">
<svg version="1.1" id="Layer_1" xmlns="http://www.w3.org/2000/svg" xmlns:xlink="http://www.w3.org/1999/xlink" x="0px" y="0px"
	 width="512px" height="512px" viewBox="0 0 512 512" enable-background="new 0 0 512 512" xml:space="preserve">
<g>
	<g>
		<path fill="#db4830" d="M133.436,295.973c-19.017,0-34.433,15.416-34.433,34.433c0,19.018,15.416,34.434,34.433,34.434
			c19.018,0,34.435-15.416,34.435-34.434C167.871,311.39,152.454,295.973,133.436,295.973z M133.436,350.291
			c-10.981,0-19.884-8.903-19.884-19.885c0-10.981,8.903-19.884,19.884-19.884c10.982,0,19.885,8.903,19.885,19.884
			C153.321,341.388,144.418,350.291,133.436,350.291z"/>
		<path fill="#db4830" d="M257.506,256.86c-41.93,0.17-82.19,0.085-89.635-0.791c-2.285-0.269-4.231-0.742-5.891-1.358
			c-4.325-1.606-4.542-7.675-0.427-9.763c19.311-9.798,41.461-21.58,55.946-27.788c11.921-5.108,25.57-7.636,40.007-8.305v-11.447
			c-17.849-0.122-34.807,2.321-49.245,8.509c-19.639,8.417-53.348,27.065-74.984,37.135c-9.692-10.235-37.691-37.408-63.546-39.289
			c-2.489-0.149-4.604,1.675-4.786,4.135c-0.179,2.465,1.672,4.606,4.135,4.786c20.797,1.511,44.765,23.384,55.397,34.163
			c-2.936,1.161-5.899,2.251-8.902,3.218c-0.096-0.022-0.185-0.062-0.282-0.082c-0.428-0.597-1.093-1.013-1.88-1.013
			c-0.701,0-1.314,0.326-1.747,0.817l-4.597,0.308c-0.418-0.66-1.121-1.125-1.956-1.125c-0.953,0-1.772,0.58-2.141,1.4l-3.944,0.265
			c-0.3-0.955-1.163-1.664-2.215-1.664c-1.157,0-2.082,0.862-2.275,1.966l-3.698,0.248c-0.076-1.226-1.081-2.214-2.325-2.214
			c-1.295,0-2.355,1.06-2.355,2.354v0.174l-3.59,0.241v-0.415c0-1.295-1.06-2.354-2.355-2.354c-1.296,0-2.354,1.06-2.354,2.354
			v0.731l-1.556,0.104c-6.131,0.411-10.768,5.714-10.356,11.846l0.238,3.544c-11.816,9.242-9.091,18.395-9.091,18.395l-0.136,22.021
			c-0.077,12.37,9.928,22.439,22.3,22.439h6.649c0-26.249,21.278-47.528,47.527-47.528c26.249,0,47.529,21.279,47.529,47.528h76.541
			V256.86z M82.002,280.944c-7.844,6.058-15.927,8.734-18.055,5.978c-2.13-2.756,2.504-9.9,10.348-15.958
			c7.843-6.058,15.928-8.734,18.055-5.978C94.479,267.742,89.845,274.886,82.002,280.944z"/>
	</g>
	<g>
		<path fill="#db4830" d="M301.45,236.069h40.899V195.17H301.45V236.069z M305.119,198.839h28.04c3.049,0,5.521,2.472,5.521,5.522
			V232.4h-33.561V198.839z"/>
		<path fill="#db4830" d="M364.427,245.039v40.899h40.899v-40.899H364.427z M401.657,282.268h-33.562v-33.561h26.974
			c3.638,0,6.587,2.949,6.587,6.586V282.268z"/>
		<path fill="#db4830" d="M342.349,335.806v-40.899H301.45v40.899H342.349z M305.119,298.575h26.975
			c3.637,0,6.586,2.949,6.586,6.586v26.975h-33.561V298.575z"/>
		<path fill="#db4830" d="M334.315,205.254c-0.846-0.559-1.986-0.329-2.543,0.518l-11.352,17.177l-8.626-8.626
			c-0.716-0.717-1.878-0.717-2.594,0c-0.716,0.716-0.716,1.877,0,2.594l11.805,11.804l13.826-20.925
			C335.392,206.951,335.159,205.811,334.315,205.254z"/>
		<path fill="#db4830" d="M317.637,168.785c6.585,0,11.924-5.339,11.924-11.924v-19.376c0-6.585-5.339-11.923-11.924-11.923
			c-6.585,0-11.923,5.338-11.923,11.923v19.376C305.715,163.446,311.052,168.785,317.637,168.785z"/>
		<path fill="#db4830" d="M354.273,168.785c6.585,0,11.924-5.339,11.924-11.924v-19.376c0-6.585-5.339-11.923-11.924-11.923
			c-6.586,0-11.924,5.338-11.924,11.923v19.376C342.349,163.446,347.688,168.785,354.273,168.785z"/>
		<path fill="#db4830" d="M337.878,156.861v-11.209h-3.847v11.209c0,0.755-0.124,1.477-0.223,2.206h4.292
			C338.002,158.338,337.878,157.617,337.878,156.861z"/>
		<path fill="#db4830" d="M411.435,145.653h-4.131v11.209c0,0.755-0.123,1.477-0.223,2.206h4.354
			c9.222,0,16.726,7.504,16.726,16.726V346.24c0,9.222-7.504,16.726-16.726,16.726H297.11c-9.222,0-16.726-7.504-16.726-16.726
			V175.793c0-9.222,7.504-16.726,16.726-16.726h4.356c-0.1-0.729-0.223-1.45-0.223-2.206v-11.209h-4.132
			c-16.646,0-30.14,13.495-30.14,30.14V346.24c0,16.646,13.493,30.14,30.14,30.14h114.323c16.646,0,30.14-13.494,30.14-30.14
			V175.793C441.575,159.147,428.081,145.653,411.435,145.653z"/>
		<path fill="#db4830" d="M374.514,156.861v-11.209h-3.845v11.209c0,0.755-0.124,1.477-0.223,2.206h4.29
			C374.637,158.338,374.514,157.617,374.514,156.861z"/>
		<path fill="#db4830" d="M390.91,168.785c6.584,0,11.923-5.339,11.923-11.924v-19.376c0-6.585-5.338-11.923-11.923-11.923
			c-6.586,0-11.924,5.338-11.924,11.923v19.376C378.986,163.446,384.324,168.785,390.91,168.785z"/>
		<rect x="354.273" y="195.17" fill="#db4830" width="55.905" height="9.703"/>
		<rect x="354.273" y="215.619" fill="#db4830" width="55.905" height="5.971"/>
		<rect x="354.273" y="228.722" fill="#db4830" width="55.905" height="5.971"/>
		<rect x="298.368" y="245.726" fill="#db4830" width="55.906" height="9.703"/>
		<rect x="298.368" y="266.176" fill="#db4830" width="55.906" height="5.971"/>
		<rect x="298.368" y="279.278" fill="#db4830" width="55.906" height="5.972"/>
		<rect x="351.033" y="295.595" fill="#db4830" width="55.906" height="9.703"/>
		<rect x="351.033" y="316.044" fill="#db4830" width="55.906" height="5.971"/>
		<rect x="351.033" y="329.146" fill="#db4830" width="55.906" height="5.971"/>
	</g>
</g>
<g>
</g>
<g>
</g>
<g>
</g>
<g>
</g>
<g>
</g>
<g>
</g>
<g>
</g>
<g>
</g>
<g>
</g>
<g>
</g>
<g>
</g>
<g>
</g>
<g>
</g>
<g>
</g>
<g>
</g>
</svg>
