<?xml version="1.0" encoding="utf-8"?>
<!-- Generator: Adobe Illustrator 17.0.0, SVG Export Plug-In . SVG Version: 6.00 Build 0)  -->
<!DOCTYPE svg PUBLIC "-//W3C//DTD SVG 1.1//EN" "http://www.w3.org/Graphics/SVG/1.1/DTD/svg11.dtd">
<svg version="1.1" id="Layer_1" xmlns="http://www.w3.org/2000/svg" xmlns:xlink="http://www.w3.org/1999/xlink" x="0px" y="0px"
	 width="512px" height="256px" viewBox="0 0 512 256" enable-background="new 0 0 512 256" xml:space="preserve">
<g>
	<defs>
		<path id="SVGID_1_" d="M74.316,138.9c-2.387,0.193-4.657,0.55-6.805,1.072c-2.15,0.525-4.276,1.263-6.378,2.216
			c-3.631,1.715-7.045,3.811-10.243,6.288c-3.201,2.477-5.899,5.479-8.095,9.002c-3.152-0.095-6.378-0.24-9.671-0.427
			c-3.296-0.193-6.617-0.67-9.96-1.429c-3.724-0.953-6.854-2.502-9.386-4.647c-2.531-2.142-4.513-4.666-5.945-7.573
			c-1.434-2.904-2.365-6.073-2.796-9.505c-0.43-3.43-0.406-6.906,0.074-10.431c1.717-9.241,4.009-18.365,6.876-27.367
			c2.866-9.004,6.065-17.84,9.6-26.51c2.101-5.049,5.014-8.98,8.74-11.792c3.726-2.809,7.902-4.905,12.537-6.288
			c4.633-1.38,9.503-2.216,14.615-2.501c5.109-0.286,10.052-0.427,14.83-0.427c2.771,0,5.85,0.049,9.244,0.142
			c3.389,0.098,6.827,0.359,10.316,0.787c3.484,0.43,6.851,1.097,10.101,2.001c3.245,0.906,6.135,2.216,8.667,3.931
			c2.531,1.715,4.562,3.909,6.089,6.574c1.527,2.667,2.295,5.956,2.295,9.862c-1.628,11.051-3.871,21.771-6.734,32.155
			c-2.866,10.384-6.356,20.627-10.461,30.723h28.657l-6.163,20.295H88.359c-8.98,0-16.67,1.021-23.069,3.073
			c-6.399,2.047-11.272,5.12-14.614,9.217c-0.479,0.664-1.075,0.904-1.791,0.713c-0.716-0.191-0.98-0.621-0.789-1.285
			c0.955-4.097,2.58-7.861,4.872-11.291c2.292-3.43,5.014-6.429,8.166-9.002C65.051,143.141,69.447,140.615,74.316,138.9
			L74.316,138.9L74.316,138.9z M70.593,69.731c-3.25-0.191-6.402,0-9.459,0.572c-2.197,0.479-4.154,1.337-5.874,2.572
			c-1.717,1.239-2.962,2.907-3.724,5.003c-3.152,7.431-5.901,15.102-8.24,23.009c-2.341,7.907-4.467,15.91-6.378,24.008
			c-0.479,1.905-0.479,3.835,0,5.787c0.479,1.954,1.671,3.313,3.582,4.072c2.866,1.143,5.899,1.742,9.1,1.788
			c3.198,0.049,6.326-0.12,9.386-0.501c2.482,0,4.75-0.904,6.805-2.717c2.052-1.808,3.558-3.808,4.513-6.002
			c3.152-8.003,5.994-16.005,8.526-24.008c2.531-8.003,4.752-16.101,6.663-24.294c0.191-0.667,0.166-1.475-0.071-2.431
			c-0.24-0.95-0.623-1.856-1.146-2.714c-0.528-0.857-1.146-1.595-1.865-2.216c-0.716-0.618-1.503-1.023-2.363-1.214
			C76.989,70.161,73.837,69.924,70.593,69.731L70.593,69.731z"/>
	</defs>
	<clipPath id="SVGID_2_">
		<use xlink:href="#SVGID_1_"  overflow="visible"/>
	</clipPath>
	<g clip-path="url(#SVGID_2_)">
		
			<image overflow="visible" width="1920" height="1080" xlink:href="A305DA7A.jpg"  transform="matrix(0.9166 0 0 0.9166 -619.178 -377.5173)">
		</image>
	</g>
</g>
<g>
	<defs>
		<path id="SVGID_3_" d="M192.011,47.783h-32.999l-23.831,78.827c0,0-12.434,34.058,41.247,30.25c0,0,43.468,2.809,54.996-21.999
			l25.666-87.077h-37.58c0,0-9.59,6.631-11,15.583c0,0-7.325,28.962-6.416,32.079c0,0,9.217,11.19,7.333,20.167
			c0,0-1.421,18.175-22.917,20.165c0,0-2.041-1.239-0.915-3.667l9.165-14.666c0,0,2.921-7.437-3.666-11c0,0-7.436-4.399-11,1.835
			l-10.997,14.663c0,0-5.972-2.932-4.584-10.997c0,0,0.599-16.207,16.498-20.167C181.011,91.779,191.608,73.645,192.011,47.783
			L192.011,47.783z"/>
	</defs>
	<clipPath id="SVGID_4_">
		<use xlink:href="#SVGID_3_"  overflow="visible"/>
	</clipPath>
	<g clip-path="url(#SVGID_4_)">
		
			<image overflow="visible" width="1920" height="1080" xlink:href="A305DA7E.jpg"  transform="matrix(0.9166 0 0 0.9166 -619.178 -377.5173)">
		</image>
	</g>
</g>
<g>
	<defs>
		<path id="SVGID_5_" d="M270.653,154.612h-32.368l32.653-106.698h31.937L270.653,154.612L270.653,154.612z M396.826,73.12H349.42
			c-1.432,0-2.768,0.408-4.009,1.217c-1.241,0.814-2.197,1.84-2.863,3.081c-4.01,6.971-7.257,14.299-9.74,21.983
			c-2.482,7.687-4.154,15.54-5.011,23.559c-0.193,1.339,0.215,2.532,1.217,3.582c1.002,1.051,2.218,1.718,3.65,2.003
			c8.022,1.146,16.016,1.696,23.989,1.647c7.973-0.046,15.875-0.833,23.703-2.363l-7.589,26.496
			c-19.862,3.054-39.768,3.484-59.724,1.288c-4.489-0.479-8.142-1.954-10.956-4.44c-2.817-2.48-4.941-5.488-6.372-9.021
			c-1.432-3.533-2.292-7.352-2.578-11.46c-0.286-4.102-0.098-7.97,0.572-11.599c0.765-4.012,1.72-8.593,2.866-13.749
			c1.143-5.158,2.599-10.384,4.366-15.684c1.767-5.3,3.844-10.477,6.231-15.537c2.385-5.06,5.226-9.573,8.523-13.537
			c3.294-3.961,7.039-7.134,11.242-9.522c4.2-2.387,8.975-3.582,14.321-3.582h63.303L396.826,73.12L396.826,73.12z M511.257,47.484
			l-55.57,48.98l27.928,58.148h-30.65l-18.904-44.97l-13.749,44.97h-31.507l32.653-107.128h31.507l-11.313,36.951l39.526-36.951
			H511.257L511.257,47.484z"/>
	</defs>
	<clipPath id="SVGID_6_">
		<use xlink:href="#SVGID_5_"  overflow="visible"/>
	</clipPath>
	<g clip-path="url(#SVGID_6_)">
		
			<image overflow="visible" width="1920" height="1080" xlink:href="A305DA79.jpg"  transform="matrix(0.9166 0 0 0.9166 -619.178 -377.5173)">
		</image>
	</g>
</g>
<g>
	<defs>
		<path id="SVGID_7_" d="M48.109,182.983l-18.382,0.057c-1.336,0.155-2.491,0.422-3.465,0.803c-0.972,0.381-1.652,1.01-2.033,1.886
			c-0.419,0.953-0.506,1.745-0.256,2.374c0.248,0.629,0.735,1.113,1.459,1.456c0.305,0.152,0.61,0.259,0.917,0.316
			c0.305,0.057,0.667,0.095,1.089,0.114c0.419,0.019,0.915,0.027,1.489,0.027c0.572,0,1.258,0,2.061,0
			c3.397,0,6.013,0.269,7.845,0.803c1.832,0.534,3.207,1.448,4.124,2.744c0.724,0.991,1.127,2.335,1.203,4.031
			c0.076,1.696-0.21,3.46-0.86,5.289c-0.765,2.327-1.786,4.472-3.062,6.435c-1.279,1.963-3.008,3.46-5.183,4.489
			c-1.337,0.648-3.092,1.097-5.27,1.345c-2.175,0.248-4.981,0.37-8.419,0.37H5.675l2.463-10.006h13.572c1.029,0,2.118,0,3.264,0
			c1.146,0,2.232-0.068,3.264-0.201c1.032-0.133,1.927-0.389,2.692-0.77c0.762-0.381,1.279-0.974,1.546-1.775
			c0.305-0.991,0.335-1.677,0.084-2.058c-0.248-0.381-0.773-0.781-1.573-1.2c-0.689,0.038-1.527,0.057-2.521,0.057
			c-0.994,0-2.052-0.03-3.177-0.087c-1.127-0.057-2.273-0.15-3.438-0.286c-1.165-0.133-2.232-0.343-3.207-0.629
			c-0.974-0.286-1.824-0.637-2.548-1.056c-0.727-0.419-1.222-0.953-1.489-1.603c-0.308-0.686-0.613-1.448-0.917-2.287
			c-0.305-0.838-0.544-1.734-0.716-2.687c-0.171-0.953-0.229-1.965-0.171-3.032c0.057-1.067,0.278-2.153,0.659-3.258
			c-1.07,0.419-2.033,0.904-2.891,1.456c-0.86,0.555-1.576,1.192-2.148,1.916c-0.114,0.114-0.212,0.172-0.286,0.172
			c-0.193,0.114-0.403,0.125-0.631,0.03c-0.229-0.095-0.305-0.259-0.229-0.487c1.26-2.401,2.52-4.535,3.778-6.405
			c1.26-1.867,2.711-3.441,4.352-4.717c1.641-1.277,3.59-2.248,5.841-2.915c2.254-0.667,5.041-0.983,8.362-0.945h20.96
			L48.109,182.983L48.109,182.983z M104.574,195.023c-1.146,4.211-2.616,8.376-4.41,12.494c-0.955,2.096-2.368,3.814-4.238,5.147
			c-1.87,1.334-3.914,2.191-6.127,2.572c-1.794,0.305-3.579,0.534-5.354,0.686c-1.775,0.152-3.56,0.229-5.354,0.229
			c-1.298,0-2.654-0.027-4.067-0.084c-1.413-0.057-2.806-0.21-4.181-0.457c-1.372-0.248-2.662-0.61-3.865-1.086
			c-1.2-0.476-2.243-1.124-3.119-1.946c-0.879-0.819-1.538-1.829-1.976-3.03c-0.438-1.2-0.583-2.659-0.43-4.374
			c0.191-1.982,0.525-4.031,1.002-6.149c0.479-2.115,1.032-4.222,1.66-6.318c0.631-2.096,1.309-4.146,2.033-6.149
			c0.727-2.001,1.451-3.879,2.178-5.632c0.381-0.953,1.021-1.924,1.919-2.915c0.896-0.991,2.137-1.897,3.721-2.717
			c1.584-0.819,3.579-1.486,5.986-2.003c2.404-0.514,5.305-0.77,8.702-0.77c1.679,0,3.503,0.038,5.471,0.114
			c1.965,0.076,3.835,0.362,5.61,0.857c1.778,0.495,3.351,1.288,4.725,2.374c1.375,1.086,2.311,2.659,2.806,4.717v1.543
			C106.616,186.511,105.72,190.809,104.574,195.023L104.574,195.023z M93.58,182.613c-0.384-0.514-0.909-0.895-1.576-1.143
			c-0.667-0.248-1.402-0.411-2.205-0.487c-0.8-0.076-1.489-0.114-2.061-0.114c-0.651,0-1.356,0.038-2.12,0.114
			c-0.762,0.076-1.497,0.239-2.205,0.487c-0.705,0.248-1.345,0.591-1.916,1.029c-0.574,0.438-0.993,1.021-1.26,1.745
			c-1.146,2.972-2.216,6.043-3.206,9.206c-0.994,3.166-1.835,6.367-2.521,9.606c-0.191,0.765-0.201,1.44-0.03,2.031
			c0.174,0.591,0.468,1.086,0.887,1.486c0.422,0.4,0.955,0.697,1.606,0.887c0.648,0.191,1.353,0.248,2.118,0.171
			c0.724,0,1.554-0.027,2.491-0.084c0.936-0.057,1.832-0.201,2.692-0.43c0.86-0.229,1.611-0.591,2.262-1.086
			c0.648-0.495,1.07-1.181,1.26-2.061c1.337-3.163,2.521-6.337,3.55-9.519c1.032-3.185,1.87-6.435,2.52-9.75
			C94.056,183.824,93.961,183.127,93.58,182.613L93.58,182.613z M150.16,214.893c-4.238,0.724-8.305,1.143-12.2,1.258
			c-3.893,0.114-7.807-0.114-11.737-0.686c-3.362-0.419-5.662-1.876-6.903-4.374c-1.241-2.496-1.288-5.918-0.142-10.265
			c0.038-0.229,0.095-0.495,0.172-0.8c0.076-0.305,0.21-0.792,0.4-1.459c0.19-0.667,0.449-1.59,0.773-2.774
			c0.324-1.181,0.784-2.774,1.375-4.774c0.591-2.001,1.347-4.478,2.262-7.434c0.917-2.953,2.022-6.527,3.321-10.722h12.772
			l-7.216,23.845c-0.191,0.994-0.411,1.946-0.659,2.861c-0.248,0.915-0.411,1.867-0.487,2.858c-0.076,0.536,0.133,1.108,0.632,1.718
			c0.495,0.61,1.01,0.972,1.546,1.086c3.245,0.495,6.451,0.629,9.62,0.4c3.169-0.229,6.337-0.667,9.508-1.315L150.16,214.893
			L150.16,214.893z M208.397,207.517c-1.143,2.096-2.643,3.727-4.494,4.889c-1.854,1.165-3.838,2.022-5.956,2.575
			c-2.118,0.55-4.257,0.885-6.413,0.999c-2.159,0.114-4.116,0.171-5.871,0.171c-1.298,0-2.635-0.027-4.009-0.084
			c-1.372-0.057-2.689-0.21-3.95-0.457c-1.26-0.248-2.434-0.61-3.522-1.086c-1.089-0.476-2.003-1.124-2.749-1.946
			c-0.743-0.819-1.268-1.829-1.573-3.03c-0.308-1.2-0.308-2.659,0-4.374l9.963-32.425h12.14l-9.219,30.307
			c-0.267,0.765-0.278,1.413-0.027,1.946c0.248,0.533,0.648,0.98,1.203,1.342c0.553,0.365,1.219,0.64,2.003,0.83
			c0.781,0.19,1.592,0.343,2.433,0.457c0.877-0.076,1.718-0.191,2.521-0.343c0.8-0.152,1.565-0.389,2.289-0.716
			c0.727-0.321,1.375-0.751,1.949-1.285c0.572-0.533,1.067-1.22,1.489-2.061l9.277-30.478c0.038-0.038,0.114-0.057,0.229-0.057
			h12.886L208.397,207.517L208.397,207.517z M272.022,182.983h-10.651l-9.851,32.539h-12.941l9.963-32.539
			c-2.978-0.076-5.392-0.008-7.243,0.201c-1.851,0.21-3.359,0.542-4.524,1.002c-1.165,0.457-2.091,1.01-2.776,1.658
			c-0.689,0.648-1.339,1.353-1.949,2.115c-0.19,0.229-0.43,0.305-0.716,0.229c-0.286-0.076-0.392-0.248-0.313-0.514
			c1.257-2.401,2.499-4.535,3.721-6.405c1.222-1.867,2.643-3.441,4.265-4.717c1.622-1.277,3.552-2.24,5.784-2.888
			c2.235-0.648,5.011-0.953,8.332-0.915v0.114h21.991L272.022,182.983L272.022,182.983z M295.559,215.522h-12.943l13.057-42.602
			h12.769L295.559,215.522L295.559,215.522z M360.844,195.023c-1.146,4.211-2.616,8.376-4.41,12.494
			c-0.955,2.096-2.368,3.814-4.238,5.147c-1.873,1.334-3.914,2.191-6.128,2.572c-1.796,0.305-3.579,0.534-5.354,0.686
			c-1.777,0.152-3.56,0.229-5.357,0.229c-1.296,0-2.654-0.027-4.064-0.084c-1.413-0.057-2.806-0.21-4.181-0.457
			c-1.375-0.248-2.662-0.61-3.865-1.086c-1.203-0.476-2.243-1.124-3.122-1.946c-0.879-0.819-1.538-1.829-1.976-3.03
			c-0.438-1.2-0.582-2.659-0.427-4.374c0.191-1.982,0.523-4.031,1.002-6.149c0.476-2.115,1.029-4.222,1.66-6.318
			c0.629-2.096,1.307-4.146,2.033-6.149c0.724-2.001,1.451-3.879,2.175-5.632c0.381-0.953,1.021-1.924,1.919-2.915
			c0.896-0.991,2.137-1.897,3.724-2.717c1.581-0.819,3.577-1.486,5.983-2.003c2.406-0.514,5.305-0.77,8.705-0.77
			c1.68,0,3.503,0.038,5.469,0.114c1.965,0.076,3.838,0.362,5.613,0.857c1.775,0.495,3.351,1.288,4.725,2.374
			c1.372,1.086,2.308,2.659,2.804,4.717v1.543C362.885,186.511,361.987,190.809,360.844,195.023L360.844,195.023z M349.847,182.613
			c-0.381-0.514-0.906-0.895-1.573-1.143c-0.67-0.248-1.405-0.411-2.205-0.487c-0.803-0.076-1.489-0.114-2.063-0.114
			c-0.648,0-1.356,0.038-2.118,0.114c-0.765,0.076-1.5,0.239-2.205,0.487c-0.708,0.248-1.347,0.591-1.919,1.029
			c-0.572,0.438-0.994,1.021-1.26,1.745c-1.146,2.972-2.213,6.043-3.207,9.206c-0.993,3.166-1.832,6.367-2.52,9.606
			c-0.191,0.765-0.199,1.44-0.027,2.031c0.172,0.591,0.466,1.086,0.887,1.486c0.419,0.4,0.953,0.697,1.603,0.887
			c0.648,0.191,1.356,0.248,2.118,0.171c0.727,0,1.557-0.027,2.493-0.084c0.934-0.057,1.832-0.201,2.689-0.43
			c0.86-0.229,1.614-0.591,2.265-1.086c0.648-0.495,1.067-1.181,1.258-2.061c1.336-3.163,2.52-6.337,3.552-9.519
			c1.029-3.185,1.87-6.435,2.518-9.75C350.323,183.824,350.228,183.127,349.847,182.613L349.847,182.613z M415.992,215.522h-15.235
			l-6.013-29.621l-8.934,29.621h-12.655l12.826-42.602h12.829c0.686,0,1.375,0.106,2.061,0.313c0.688,0.212,1.317,0.517,1.892,0.917
			c0.572,0.4,1.059,0.866,1.459,1.399c0.4,0.536,0.678,1.143,0.83,1.832l3.895,20.244l7.559-24.705h12.254L415.992,215.522
			L415.992,215.522z M480.931,182.983l-18.382,0.057c-1.336,0.155-2.491,0.422-3.465,0.803c-0.975,0.381-1.652,1.01-2.033,1.886
			c-0.419,0.953-0.506,1.745-0.256,2.374c0.248,0.629,0.732,1.113,1.459,1.456c0.305,0.152,0.61,0.259,0.917,0.316
			c0.305,0.057,0.667,0.095,1.086,0.114c0.422,0.019,0.917,0.027,1.489,0.027c0.574,0,1.26,0,2.063,0
			c3.397,0,6.013,0.269,7.845,0.803c1.832,0.534,3.207,1.448,4.124,2.744c0.724,0.991,1.124,2.335,1.203,4.031
			c0.076,1.696-0.212,3.46-0.86,5.289c-0.765,2.327-1.786,4.472-3.065,6.435c-1.28,1.963-3.005,3.46-5.183,4.489
			c-1.337,0.648-3.092,1.097-5.267,1.345c-2.178,0.248-4.981,0.37-8.419,0.37h-15.69l2.461-10.006h13.572c1.031,0,2.121,0,3.266,0
			c1.143,0,2.232-0.068,3.264-0.201c1.032-0.133,1.927-0.389,2.692-0.77c0.762-0.381,1.277-0.974,1.546-1.775
			c0.305-0.991,0.332-1.677,0.085-2.058c-0.248-0.381-0.773-0.781-1.573-1.2c-0.689,0.038-1.527,0.057-2.521,0.057
			c-0.994,0-2.052-0.03-3.18-0.087c-1.124-0.057-2.27-0.15-3.435-0.286c-1.165-0.133-2.232-0.343-3.206-0.629
			c-0.975-0.286-1.824-0.637-2.548-1.056c-0.727-0.419-1.222-0.953-1.489-1.603c-0.308-0.686-0.612-1.448-0.917-2.287
			c-0.305-0.838-0.544-1.734-0.716-2.687c-0.171-0.953-0.229-1.965-0.171-3.032c0.057-1.067,0.278-2.153,0.659-3.258
			c-1.07,0.419-2.033,0.904-2.894,1.456c-0.857,0.555-1.573,1.192-2.145,1.916c-0.117,0.114-0.212,0.172-0.288,0.172
			c-0.191,0.114-0.4,0.125-0.629,0.03c-0.229-0.095-0.305-0.259-0.229-0.487c1.26-2.401,2.518-4.535,3.778-6.405
			c1.26-1.867,2.711-3.441,4.353-4.717c1.641-1.277,3.588-2.248,5.842-2.915c2.254-0.667,5.041-0.983,8.362-0.945h20.959
			L480.931,182.983L480.931,182.983z"/>
	</defs>
	<clipPath id="SVGID_8_">
		<use xlink:href="#SVGID_7_"  overflow="visible"/>
	</clipPath>
	<g clip-path="url(#SVGID_8_)">
		
			<image overflow="visible" width="1920" height="1080" xlink:href="A305DA7B.jpg"  transform="matrix(0.9166 0 0 0.9166 -619.178 -377.5173)">
		</image>
	</g>
</g>
<g>
</g>
<g>
</g>
<g>
</g>
<g>
</g>
<g>
</g>
<g>
</g>
<g>
</g>
<g>
</g>
<g>
</g>
<g>
</g>
<g>
</g>
<g>
</g>
<g>
</g>
<g>
</g>
<g>
</g>
</svg>
